<svg xmlns="http://www.w3.org/2000/svg" preserveAspectRatio="xMidYMid" width="11" height="14"><defs><style>.cls-2{fill:#888}</style></defs><path d="M10 14H1a1 1 0 0 1-1-1V1a1 1 0 0 1 1-1h6.984L11 2.969V13a1 1 0 0 1-1 1zM6 1H1v12h9V5H6V1zm4.266 2.094L7.844.672C7.406.234 7.5 1 7.5 1v2c0 .484.469.484.469.484h2.109c.734.016.188-.39.188-.39zM8.635 8.496c-.275-.09-.791-.087-1.41-.02.716.359 1.413.537 1.635.43a.485.485 0 0 0 .119-.119s-.039.181-.067.226a.347.347 0 0 1-.172.121c-.349.095-1.258-.125-2.05-.588a16.32 16.32 0 0 0-2.637.641c-.766 1.373-1.342 2.004-1.81 1.764l-.172-.089c-.07-.041-.081-.14-.065-.222.055-.273.39-.685 1.063-1.096.072-.045.395-.219.395-.219s-.239.236-.295.283c-.537.45-.933 1.017-.924 1.236l.002.019c.457-.066 1.141-1.016 2.021-2.777.213-.428.455-.909.648-1.393l.077-.191c-.253-.985-.405-1.777-.269-2.288.036-.134.187-.215.349-.215l.098.002h.018c.221-.004.325.284.337.396.02.186-.065.502-.065.502 0-.128.005-.334-.073-.511-.092-.205-.179-.328-.257-.348-.04.027-.078.083-.091.191a2.724 2.724 0 0 0-.036.439c0 .347.067.805.198 1.277.025-.073.047-.143.064-.209l.198-.791s-.043.915-.103 1.192l-.042.175c.216.618.564 1.17.98 1.567.164.157.371.283.567.399a7.613 7.613 0 0 1 1.151-.089c.435.006.756.072.885.203.064.063.089.14.097.226.002.033-.014.112-.018.132.004-.024.004-.142-.346-.256zm-2.529-.363a3.984 3.984 0 0 1-.958-1.276c-.145.4-.317.824-.602 1.375-.147.283-.29.545-.423.786.733-.314 1.523-.515 2.274-.658a3.836 3.836 0 0 1-.291-.227z" id="path-1" class="cls-2" fill-rule="evenodd"/></svg>