<?xml version="1.0" encoding="UTF-8"?>
<svg width="319px" height="93px" viewBox="0 0 319 93" version="1.1" xmlns="http://www.w3.org/2000/svg" xmlns:xlink="http://www.w3.org/1999/xlink">
    <!-- Generator: Sketch 46.2 (44496) - http://www.bohemiancoding.com/sketch -->
    <title>TNC-Logo</title>
    <desc>Created with Sketch.</desc>
    <defs></defs>
    <g id="Page-1" stroke="none" stroke-width="1" fill="none" fill-rule="evenodd">
        <g id="TNC-Logo" fill-rule="nonzero">
            <g id="logo" transform="translate(234.000000, 0.000000)">
                <path d="M46.831,13.815 C46.566,15.342 46.463,19.093 48.657,18.615 C51.582,17.987 51.202,17.682 52.803,16.286 C53.87,15.348 56.492,17.906 52.845,21.975 C50.854,24.205 50.416,24.888 51.482,26.176 C52.591,27.513 55.48,28.026 55.48,32.144 C55.48,35.762 60.123,33.14 61.247,31.729 C62.345,30.352 63.154,24.057 66.285,28.641 C68.505,31.9 64.713,38.874 69.278,39.557 C73.025,40.121 73.682,44.393 73.788,45.481 C73.801,45.636 73.808,45.733 73.808,45.733 C83.392,36.532 77.006,24.627 76.768,23.18 C76.356,20.599 77.748,21.543 79.458,23.125 C72.393,9.875 58.451,0.854 42.398,0.854 C39.627,0.854 36.918,1.132 34.296,1.644 C42.568,1.818 48.345,5.126 46.831,13.815" id="Fill-1" fill="#FFFFFF"></path>
                <path d="M68.843,64.424 C66.266,65.455 65.148,63.802 63.235,65.671 C61.131,67.723 67.854,71.753 55.48,68.931 C49.955,67.671 50.706,73.679 44.501,70.526 C42.784,66.434 42.733,64.025 44.199,61.464 C45.912,58.464 46.525,59.473 45.484,56.174 C45.075,54.885 45.471,54.312 46.151,52.517 C46.827,50.723 45.958,48.236 43.432,48.378 C40.069,48.564 40.458,50.091 38.384,51.483 C36.992,52.414 34.647,47.679 39.566,43.423 C42.259,41.1 42.891,40.35 42.002,38.562 C41.08,36.7 39.376,37.37 38.687,35.234 C38.158,33.591 38.98,30.5 36.618,29.762 C33.935,28.924 31.799,32.757 30.253,34.258 C28.449,36.004 26.48,39.129 25.51,36.638 C23.79,32.206 31.699,25.603 26.825,23.85 C22.234,22.2 20.74,17.381 20.74,17.381 C8.14,26.727 14.106,34.947 13.056,36.403 C12.006,37.859 9.986,34.634 8.288,36.178 C6.977,37.37 5.808,45.011 13.881,49.86 C16.941,51.696 17.943,52.166 17.209,53.278 C16.622,54.157 14.174,53.416 14.209,55.433 C14.29,59.482 20.788,58.268 21.97,63.338 C23.078,68.077 43.226,70.912 43.226,70.912 C43.203,70.89 43.316,70.922 43.48,70.97 L44.437,71.502 C44.737,72.752 45.935,75.616 48.738,77.056 C53.377,79.443 48.454,78.296 49.086,79.978 C49.408,80.834 52.697,83.054 58.547,81.708 C66.633,78.331 73.434,72.494 78.028,65.133 C73.025,61.225 72.651,62.034 68.843,64.424" id="Fill-2" fill="#FFFFFF"></path>
                <path d="M43.48,70.97 C43.316,70.922 43.203,70.89 43.226,70.912 C43.226,70.912 23.078,68.077 21.97,63.338 C20.788,58.268 14.29,59.482 14.209,55.433 C14.174,53.416 16.622,54.157 17.209,53.278 C17.943,52.166 16.941,51.696 13.881,49.86 C5.808,45.011 6.977,37.37 8.288,36.178 C9.986,34.634 12.006,37.859 13.056,36.403 C14.106,34.947 8.14,26.727 20.74,17.381 C20.74,17.381 22.234,22.2 26.825,23.85 C31.699,25.603 23.79,32.206 25.51,36.638 C26.48,39.129 28.449,36.004 30.253,34.258 C31.799,32.757 33.935,28.924 36.618,29.762 C38.98,30.5 38.158,33.591 38.687,35.234 C39.376,37.37 41.08,36.7 42.002,38.562 C42.891,40.35 42.259,41.1 39.566,43.423 C34.647,47.679 36.992,52.414 38.384,51.483 C40.458,50.091 40.069,48.564 43.432,48.378 C45.958,48.236 46.827,50.723 46.151,52.517 C45.471,54.312 45.075,54.885 45.484,56.174 C46.525,59.473 45.912,58.464 44.199,61.464 C42.733,64.025 42.784,66.434 44.501,70.526 C50.706,73.679 49.955,67.671 55.48,68.931 C67.854,71.753 61.131,67.723 63.235,65.671 C65.148,63.802 66.266,65.455 68.843,64.424 C72.661,62.03 73.025,61.219 78.054,65.155 C82.093,58.699 84.442,51.068 84.442,42.891 C84.442,35.778 82.667,29.079 79.545,23.202 C77.793,21.572 76.349,20.556 76.768,23.18 C77.006,24.627 83.392,36.532 73.808,45.733 C73.808,45.733 73.801,45.636 73.788,45.481 C73.682,44.393 73.025,40.121 69.278,39.557 C64.713,38.874 68.505,31.9 66.285,28.641 C63.154,24.057 62.345,30.352 61.247,31.729 C60.123,33.14 55.48,35.762 55.48,32.144 C55.48,28.026 52.591,27.513 51.482,26.176 C50.416,24.888 50.854,24.205 52.845,21.975 C56.492,17.906 53.87,15.348 52.803,16.286 C51.202,17.682 51.582,17.987 48.657,18.615 C46.463,19.093 46.566,15.342 46.831,13.815 C48.345,5.117 42.559,1.811 34.27,1.644 C14.941,5.434 0.36,22.456 0.36,42.891 C0.36,66.109 19.18,84.932 42.398,84.932 C48.129,84.932 53.592,83.779 58.57,81.701 C52.707,83.064 49.408,80.834 49.086,79.978 C48.454,78.296 53.377,79.443 48.738,77.056 C45.935,75.616 44.737,72.752 44.437,71.502 L43.48,70.97" id="Fill-3" fill="#4AA241"></path>
                <path d="M45.848,72.259 C45.848,72.259 18.214,61.531 17.254,34.338 C17.254,34.338 19.924,55.011 45.848,72.259" id="Fill-4" fill="#4AA241"></path>
                <path d="M45.642,0.919 C46.431,1.006 52.381,1.798 58.666,5.809 C61.002,7.998 64.311,13.367 59.204,24.372 C59.204,24.372 65.747,15.541 64.095,10.181 C69.581,15.685 74.194,24.411 74.368,38.24 C74.368,38.24 80.466,3.596 45.642,0.919" id="Fill-5" fill="#4AA241"></path>
                <path d="M73.263,69.636 C71.156,70.915 67.735,73.931 62.146,72.169 C62.146,72.169 64.333,73.85 67.851,73.76 C63.363,76.076 58.499,76.63 50.8,74.704 C50.8,74.704 66.388,83.898 77.277,66.302 C77.277,66.302 74.574,68.841 73.263,69.636" id="Fill-6" fill="#4AA241"></path>
            </g>
            <g id="Conservancy" transform="translate(0.000000, 47.000000)" fill="#FFFFFF">
                <path d="M25.36,9.236 C23.9,3.601 20.821,1.146 15.657,1.146 C8.453,1.146 4.591,6.939 4.591,14.612 C4.591,23.584 9.236,29.48 15.966,29.48 C20.663,29.48 24.161,27.289 26.407,22.905 L27.186,23.636 C25.205,28.384 20.457,31.358 14.716,31.358 C7.516,31.358 0,26.452 0,16.487 C0,6.994 6.524,0 15.447,0 C19.204,0 22.022,1.253 23.794,1.253 C24.58,1.253 25.099,0.937 25.411,0.312 L26.249,0.312 L26.249,9.236 L25.36,9.236" id="Fill-15"></path>
                <path d="M39.122,13.044 C35.211,13.044 32.859,16.487 32.859,21.806 C32.859,26.558 34.843,30.523 39.122,30.523 C43.503,30.523 45.384,26.297 45.384,21.806 C45.384,17.164 43.403,13.044 39.122,13.044 Z M39.122,31.567 C33.329,31.567 29,27.392 29,21.806 C29,16.175 33.329,12 39.122,12 C44.914,12 49.244,16.175 49.244,21.806 C49.244,27.392 44.914,31.567 39.122,31.567 L39.122,31.567 Z" id="Fill-16"></path>
                <path d="M70.567,26.977 C70.567,29.373 71.089,30.105 73.698,30.105 L73.698,30.994 L63.837,30.994 L63.837,30.105 C66.34,30.105 67.02,29.531 67.02,27.811 L67.02,18.156 C67.02,15.186 64.878,13.933 62.897,13.933 C61.07,13.933 59.453,15.079 57.626,17.531 L57.626,26.558 C57.626,29.373 57.99,30.105 60.757,30.105 L60.757,30.994 L51,30.994 L51,30.105 C53.451,30.105 54.076,29.895 54.076,26.558 L54.076,16.175 C54.076,13.933 53.503,13.462 51,13.462 L51,12.576 L56.737,12 L57.626,12 L57.626,15.701 C59.817,13.201 61.956,12 64.304,12 C67.381,12 70.567,14.194 70.567,18.626 L70.567,26.977" id="Fill-17"></path>
                <path d="M85.594,17.686 C85.229,14.609 83.194,13.044 81.001,13.044 C79.175,13.044 77.922,14.036 77.922,15.547 C77.922,20.244 87.626,18.99 87.626,25.878 C87.626,28.958 84.968,31.567 81.784,31.567 C79.748,31.567 77.976,30.208 77.087,30.208 C76.411,30.208 75.937,30.784 75.885,31.461 L75,31.461 L75,25.147 L75.885,25.147 C76.672,29.009 79.542,30.523 81.836,30.523 C83.664,30.523 85.072,29.164 85.072,27.337 C85.072,22.177 75.26,23.581 75.26,17.322 C75.26,14.451 77.818,12 80.895,12 C82.83,12 83.403,12.889 84.656,12.889 C85.123,12.889 85.487,12.628 85.748,12 L86.637,12 L86.637,17.686 L85.594,17.686" id="Fill-18"></path>
                <path d="M103.778,18.833 C103.933,14.764 101.169,13.098 98.82,13.098 C95.74,13.098 93.917,15.392 93.704,18.833 L103.778,18.833 Z M93.704,19.722 C93.601,28.017 98.559,30.105 101.062,30.105 C103.62,30.105 104.925,29.219 107.586,26.245 L107.586,27.598 C105.341,30.469 103.201,31.567 99.967,31.567 C94.175,31.567 90,27.55 90,21.964 C90,16.381 94.068,12 99.287,12 C103.565,12 107.534,15.447 107.273,19.722 L93.704,19.722 L93.704,19.722 Z" id="Fill-19"></path>
                <path d="M116.358,27.498 C116.358,29.531 116.983,30.105 119.437,30.105 L119.437,30.994 L109.679,30.994 L109.679,30.105 C112.495,30.105 112.808,29.373 112.808,26.558 L112.808,16.487 C112.808,13.775 112.128,13.462 109,13.462 L109,12.576 L115.468,12 L116.358,12 L116.358,16.017 C119.801,13.044 121.419,12 122.672,12 C123.716,12 125.123,12.628 126.064,13.462 L124.653,16.745 C123.139,15.914 121.522,15.131 120.269,15.131 C119.07,15.131 118.026,15.756 116.358,17.373 L116.358,27.498" id="Fill-20"></path>
                <path d="M137.636,25.927 L141.237,16.588 C142.127,14.188 142.127,13.096 139.411,12.886 L139.411,12 L146.195,12 L146.195,12.886 C144.056,13.096 143.534,13.563 142.645,15.544 L136.695,30.833 L135.812,30.833 L129.914,16.327 C128.661,13.305 128.19,12.989 126,12.886 L126,12 L134.923,12 L134.923,12.886 C133.148,13.044 132.681,14.033 133.515,16.066 L137.636,25.927" id="Fill-21"></path>
                <path d="M156.129,27.09 C155.407,28.639 153.442,29.416 152.356,29.416 C150.858,29.416 149.566,27.918 149.566,26.056 C149.566,22.335 152.666,22.39 156.129,20.889 L156.129,27.09 Z M159.634,26.822 L159.643,18.717 C159.643,13.759 156.077,12 153.026,12 C149.721,12 147.034,14.223 146.258,17.635 L147.192,17.893 C147.965,15.257 149.979,13.965 152.047,13.965 C154.631,13.965 156.129,15.827 156.129,18.411 L156.129,19.751 C153.133,21.51 146,21.304 146,26.523 C146,29.21 148.378,31.378 151.219,31.378 C153.133,31.378 154.537,30.621 156.348,28.659 L156.357,28.652 L156.357,30.853 L162.773,30.853 L162.773,29.96 C160.159,29.96 159.634,29.229 159.634,26.822 L159.634,26.822 Z" id="Fill-26"></path>
                <path d="M183.567,26.977 C183.567,29.373 184.092,30.105 186.699,30.105 L186.699,30.994 L176.838,30.994 L176.838,30.105 C179.344,30.105 180.021,29.531 180.021,27.811 L180.021,18.156 C180.021,15.186 177.878,13.933 175.897,13.933 C174.07,13.933 172.456,15.079 170.627,17.531 L170.627,26.558 C170.627,29.373 170.994,30.105 173.761,30.105 L173.761,30.994 L164,30.994 L164,30.105 C166.455,30.105 167.08,29.895 167.08,26.558 L167.08,16.175 C167.08,13.933 166.503,13.462 164,13.462 L164,12.576 L169.741,12 L170.627,12 L170.627,15.701 C172.82,13.201 174.959,12 177.305,12 C180.388,12 183.567,14.194 183.567,18.626 L183.567,26.977" id="Fill-22"></path>
                <path d="M203.91,18.52 L203.02,18.52 C202.234,15.186 199.889,13.044 196.809,13.044 C193.159,13.044 190.602,16.175 190.602,20.711 C190.602,25.772 193.784,30.002 197.541,30.002 C199.786,30.002 202.499,28.803 204.428,26.139 L204.428,27.498 C202.447,30.208 199.628,31.567 196.291,31.567 C190.808,31.567 187,27.756 187,22.225 C187,16.539 191.281,12 196.548,12 C199.316,12 200.827,13.044 201.767,13.044 C202.234,13.044 202.708,12.68 203.02,12 L203.91,12 L203.91,18.52" id="Fill-23"></path>
                <path d="M217,26.136 L220.238,16.378 C220.966,14.188 220.811,12.989 218.778,12.886 L218.778,12 L225.299,12 L225.299,12.886 C223.314,12.886 222.116,14.139 221.072,17.216 L213.714,38.974 C212.251,43.252 209.851,45.704 207.606,45.704 C206.826,45.704 206.253,45.498 205.312,44.924 L206.514,41.741 C207.242,42.054 207.657,42.157 208.286,42.157 C210.528,42.157 211.836,40.852 212.983,37.618 L215.386,30.936 L208.759,15.65 C207.819,13.511 207.139,12.938 205,12.886 L205,12 L213.869,12 L213.869,12.886 C212.461,13.096 211.887,14.139 212.567,15.702 L217,26.136" id="Fill-24"></path>
            </g>
            <g id="The-Nature" transform="translate(0.000000, 6.000000)" fill="#FFFFFF">
                <path d="M12.96,26.508 C12.96,29.539 13.536,30.377 15.688,30.377 L15.688,31.128 L6.758,31.128 L6.758,30.377 C8.562,30.377 9.619,29.849 9.619,26.376 L9.619,7.16 L5.966,7.16 C2.583,7.16 1.043,8.123 0.824,10.762 L0.077,10.762 L0.077,5.005 L0.824,5.005 C1.175,5.311 1.575,5.53 2.19,5.706 C2.76,5.844 3.549,5.925 4.609,5.925 L17.798,5.925 C19.995,5.925 21.007,5.662 21.799,5.005 L22.589,5.005 L22.589,10.762 L22.109,10.762 C21.619,8.655 20.788,7.16 16.787,7.16 L12.96,7.16 L12.96,26.508" id="Fill-7"></path>
                <path d="M40.143,27.384 C40.143,29.761 40.581,30.377 42.646,30.377 L42.646,31.128 L34.557,31.128 L34.557,30.377 C36.673,30.377 37.153,29.891 37.153,27.87 L37.153,20.178 C37.153,18.107 35.923,16.789 34.035,16.789 C32.273,16.789 30.997,17.624 29.502,19.736 L29.502,28.27 C29.502,29.891 30.159,30.377 32.092,30.377 L32.092,31.128 L23.742,31.128 L23.742,30.377 C26.071,30.332 26.516,29.891 26.516,27.384 L26.516,7.115 C26.516,5.092 25.939,4.784 23.742,4.784 L23.742,4.038 L28.755,3.508 L29.502,3.508 L29.502,18.241 C31.48,15.952 32.933,15.121 34.95,15.121 C37.549,15.121 40.143,16.834 40.143,20.525 L40.143,27.384" id="Fill-8"></path>
                <path d="M55.906,20.88 C56.038,17.448 53.705,16.042 51.727,16.042 C49.134,16.042 47.594,17.976 47.417,20.88 L55.906,20.88 Z M47.417,21.627 C47.333,28.618 51.505,30.377 53.618,30.377 C55.777,30.377 56.872,29.63 59.117,27.123 L59.117,28.27 C57.226,30.686 55.419,31.604 52.697,31.604 C47.816,31.604 44.295,28.225 44.295,23.515 C44.295,18.816 47.726,15.121 52.12,15.121 C55.728,15.121 59.069,18.022 58.853,21.627 L47.417,21.627 L47.417,21.627 Z" id="Fill-9"></path>
                <path d="M99.291,40.576 L98.106,40.576 L69.945,5.865 L69.806,5.865 L69.806,33.885 C69.806,37.928 71.411,39.391 75.035,39.391 L75.035,40.576 L62.909,40.576 L62.909,39.391 C66.25,39.391 67.854,38.347 67.854,32.561 L67.854,9.212 C67.854,4.751 66.669,2.241 61.93,1.822 L61.93,0.64 L72.174,0.64 L97.13,31.724 L97.268,31.724 L97.268,8.375 C97.268,3.146 95.873,1.822 92.391,1.822 L92.391,0.64 L104.449,0.64 L104.449,1.822 C100.548,1.822 99.291,3.426 99.291,8.094 L99.291,40.576" id="Fill-10"></path>
                <path d="M118.608,35.557 C117.632,37.648 114.983,38.695 113.521,38.695 C111.498,38.695 109.755,36.672 109.755,34.162 C109.755,29.143 113.936,29.217 118.608,27.194 L118.608,35.557 Z M123.337,35.2 L123.347,24.266 C123.347,17.575 118.54,15.204 114.423,15.204 C109.964,15.204 106.34,18.203 105.293,22.803 L106.55,23.151 C107.597,19.596 110.312,17.856 113.102,17.856 C116.585,17.856 118.608,20.364 118.608,23.85 L118.608,25.657 C114.568,28.032 104.945,27.751 104.945,34.79 C104.945,38.415 108.151,41.34 111.984,41.34 C114.568,41.34 116.459,40.322 118.901,37.674 L118.914,37.664 L118.914,40.634 L127.573,40.634 L127.573,39.433 C124.046,39.433 123.337,38.444 123.337,35.2 L123.337,35.2 Z" id="Fill-25"></path>
                <path d="M136.139,15.832 L144.712,15.832 L144.712,17.643 L136.139,17.643 L136.139,33.537 C136.139,36.952 137.882,38.695 140.601,38.695 C142.415,38.695 143.739,37.996 145.201,36.324 L145.968,37.229 C143.806,39.948 141.3,41.34 138.51,41.34 C134.329,41.34 131.4,38.415 131.4,34.162 L131.4,17.643 L126.732,17.643 L126.732,16.461 C130.076,14.789 132.863,11.789 134.957,7.537 L136.139,7.537 L136.139,15.832" id="Fill-11"></path>
                <path d="M172.811,35.905 C172.811,38.624 173.717,39.391 177.06,39.391 L177.06,40.576 L168.072,41.063 L168.072,36.533 L167.934,36.533 C165.492,39.739 162.636,41.34 159.289,41.34 C154.408,41.34 151.206,37.648 151.206,33.048 L151.206,20.432 C151.206,18.062 150.369,17.156 146.812,17.156 L146.812,15.971 L154.76,15.204 L155.945,15.204 L155.945,32.838 C155.945,36.324 158.174,38.415 161.521,38.415 C163.888,38.415 166.049,37.091 168.072,34.372 L168.072,21.06 C168.072,17.643 167.512,17.227 163.263,17.156 L163.263,15.971 L171.626,15.204 L172.811,15.204 L172.811,35.905" id="Fill-12"></path>
                <path d="M188.126,35.905 C188.126,38.624 188.961,39.391 192.237,39.391 L192.237,40.576 L179.203,40.576 L179.203,39.391 C182.969,39.391 183.388,38.415 183.388,34.652 L183.388,21.199 C183.388,17.575 182.479,17.156 178.298,17.156 L178.298,15.971 L186.941,15.204 L188.126,15.204 L188.126,20.571 C192.727,16.599 194.885,15.204 196.56,15.204 C197.955,15.204 199.837,16.042 201.093,17.156 L199.209,21.547 C197.189,20.432 195.024,19.387 193.355,19.387 C191.751,19.387 190.356,20.223 188.126,22.384 L188.126,35.905" id="Fill-13"></path>
                <path d="M219.878,24.337 C220.087,18.899 216.392,16.667 213.254,16.667 C209.144,16.667 206.702,19.736 206.425,24.337 L219.878,24.337 Z M206.425,25.522 C206.286,36.604 212.906,39.391 216.254,39.391 C219.668,39.391 221.408,38.205 224.965,34.233 L224.965,36.047 C221.969,39.88 219.108,41.34 214.788,41.34 C207.05,41.34 201.473,35.976 201.473,28.518 C201.473,21.06 206.911,15.204 213.883,15.204 C219.598,15.204 224.894,19.804 224.546,25.522 L206.425,25.522 L206.425,25.522 Z" id="Fill-14"></path>
            </g>
        </g>
    </g>
</svg>